<svg width="128" height="128" viewBox="0 0 128 128" fill="none" xmlns="http://www.w3.org/2000/svg">
<path opacity="0.4" d="M64 4C30.8628 4 4 30.8633 4 64C4 97.1367 30.8628 124 64 124C97.1373 124 124 97.1367 124 64C124 30.8633 97.1373 4 64 4ZM90.5635 67.0687L52.1635 99.0703C51.4215 99.6875 50.5153 100 49.601 100C48.7495 100 47.898 99.7265 47.1792 99.1875C45.6947 98.0625 45.187 96.0543 45.9528 94.359L57.8125 67.9985H39.9995C38.3115 67.9985 36.8115 66.9438 36.2412 65.358C35.663 63.7798 36.1475 62.0062 37.4365 60.9282L75.8365 28.9268C77.266 27.7315 79.3285 27.6925 80.8207 28.8095C82.3052 29.9345 82.813 31.9425 82.0472 33.6377L70.1875 59.998H88.0005C89.6885 59.998 91.1885 61.0533 91.7588 62.6393C92.337 64.2173 91.8525 65.9907 90.5635 67.0687Z" fill="#FFE294"/>
<path d="M88.0003 59.996H70.1875L82.0473 33.6357C82.8128 31.9402 82.305 29.9325 80.8208 28.8075C79.3285 27.6902 77.266 27.7295 75.8363 28.9247L37.4368 60.9262C36.1478 62.0042 35.6633 63.7777 36.2415 65.3557C36.8118 66.9417 38.3118 67.9965 39.9998 67.9965H57.8125L45.9528 94.3567C45.1873 96.0522 45.695 98.0605 47.1793 99.1855C47.898 99.7245 48.7495 99.998 49.6013 99.998C50.5153 99.998 51.4215 99.6855 52.1638 99.0682L90.5633 67.0667C91.8523 65.9887 92.3368 64.2152 91.7585 62.637C91.1883 61.0512 89.6883 59.996 88.0003 59.996Z" fill="#FFE294"/>
</svg>
