<svg width="28" height="28" viewBox="0 0 28 28" fill="none" xmlns="http://www.w3.org/2000/svg">
<path d="M5.83332 24.5C5.50277 24.5 5.20138 24.3977 4.92916 24.1932C4.65693 23.9886 4.47221 23.7214 4.37499 23.3917L1.10832 11.6083C1.0111 11.3361 1.05505 11.0833 1.24016 10.85C1.42527 10.6167 1.67299 10.5 1.98332 10.5L7.87499 10.5L13.0083 2.85833C13.1055 2.70277 13.2417 2.57638 13.4167 2.47916C13.5917 2.38194 13.7764 2.33333 13.9708 2.33333C14.1653 2.33333 14.35 2.38194 14.525 2.47916C14.7 2.57638 14.8361 2.70277 14.9333 2.85833L20.0667 10.5H26.0167C26.3278 10.5 26.5759 10.6167 26.761 10.85C26.9461 11.0833 26.9897 11.3361 26.8917 11.6083L23.625 23.3917C23.5278 23.7222 23.343 23.9898 23.0708 24.1943C22.7986 24.3989 22.4972 24.5008 22.1667 24.5L5.83332 24.5ZM14 19.8333C14.6417 19.8333 15.1912 19.6047 15.6485 19.1473C16.1058 18.69 16.3341 18.1409 16.3333 17.5C16.3333 16.8583 16.1047 16.3088 15.6473 15.8515C15.19 15.3942 14.6409 15.1659 14 15.1667C13.3583 15.1667 12.8088 15.3953 12.3515 15.8527C11.8942 16.31 11.6659 16.8591 11.6667 17.5C11.6667 18.1417 11.8953 18.6912 12.3527 19.1485C12.81 19.6058 13.3591 19.8341 14 19.8333ZM10.7042 10.5H17.2667L13.9708 5.6L10.7042 10.5Z" fill="#78C7FF"/>
</svg>
