<svg width="28" height="28" viewBox="0 0 28 28" fill="none" xmlns="http://www.w3.org/2000/svg">
<path d="M11.6668 14C10.3835 14 9.28489 13.5431 8.371 12.6292C7.45711 11.7153 7.00017 10.6167 7.00017 9.33334C7.00017 8.05 7.45711 6.95139 8.371 6.03751C9.28489 5.12362 10.3835 4.66667 11.6668 4.66667C12.9502 4.66667 14.0488 5.12362 14.9627 6.03751C15.8766 6.95139 16.3335 8.05 16.3335 9.33334C16.3335 10.6167 15.8766 11.7153 14.9627 12.6292C14.0488 13.5431 12.9502 14 11.6668 14ZM3.50017 23.3333C3.16961 23.3333 2.89233 23.2213 2.66833 22.9973C2.44433 22.7733 2.33272 22.4964 2.3335 22.1667V20.0667C2.3335 19.425 2.49878 18.8222 2.82933 18.2583C3.15989 17.6944 3.61683 17.2667 4.20017 16.975C5.19183 16.4694 6.30989 16.0417 7.55433 15.6917C8.79878 15.3417 10.1696 15.1667 11.6668 15.1667H12.0752C12.1918 15.1667 12.3085 15.1861 12.4252 15.225C12.2696 15.575 12.1382 15.9398 12.0308 16.3193C11.9235 16.6989 11.8411 17.0924 11.7835 17.5C11.6863 18.2 11.6571 18.7884 11.696 19.2652C11.7349 19.742 11.8418 20.3202 12.0168 21C12.1335 21.4083 12.2891 21.812 12.4835 22.211C12.6779 22.61 12.8918 22.9841 13.1252 23.3333H3.50017ZM19.8335 21C20.4752 21 21.0247 20.7713 21.482 20.314C21.9393 19.8567 22.1676 19.3076 22.1668 18.6667C22.1668 18.025 21.9382 17.4755 21.4808 17.0182C21.0235 16.5608 20.4744 16.3326 19.8335 16.3333C19.1918 16.3333 18.6423 16.562 18.185 17.0193C17.7277 17.4767 17.4994 18.0258 17.5002 18.6667C17.5002 19.3083 17.7288 19.8578 18.1862 20.3152C18.6435 20.7725 19.1926 21.0008 19.8335 21ZM18.3168 22.75C18.0835 22.6528 17.8646 22.5505 17.66 22.4432C17.4554 22.3358 17.2466 22.2048 17.0335 22.05L15.7793 22.4292C15.6432 22.4681 15.5168 22.463 15.4002 22.414C15.2835 22.365 15.1863 22.2826 15.1085 22.1667L14.4085 21C14.3307 20.8833 14.3066 20.7569 14.3362 20.6208C14.3657 20.4847 14.4384 20.3681 14.5543 20.2708L15.5168 19.425C15.4779 19.1528 15.4585 18.9 15.4585 18.6667C15.4585 18.4333 15.4779 18.1806 15.5168 17.9083L14.5543 17.0625C14.4377 16.9653 14.3649 16.8486 14.3362 16.7125C14.3074 16.5764 14.3315 16.45 14.4085 16.3333L15.1085 15.1667C15.1863 15.05 15.2835 14.9676 15.4002 14.9193C15.5168 14.8711 15.6432 14.8661 15.7793 14.9042L17.0335 15.2833C17.2474 15.1278 17.4566 14.9967 17.6612 14.8902C17.8657 14.7836 18.0843 14.6813 18.3168 14.5833L18.5793 13.3C18.6182 13.1639 18.6863 13.0519 18.7835 12.964C18.8807 12.8761 18.9974 12.8326 19.1335 12.8333H20.5335C20.6696 12.8333 20.7863 12.8773 20.8835 12.9652C20.9807 13.0531 21.0488 13.1647 21.0877 13.3L21.3502 14.5833C21.5835 14.6806 21.8024 14.7875 22.007 14.9042C22.2116 15.0208 22.4204 15.1667 22.6335 15.3417L23.8585 14.9042C23.9946 14.8458 24.1261 14.8458 24.2528 14.9042C24.3796 14.9625 24.4815 15.05 24.5585 15.1667L25.2585 16.3917C25.3363 16.5083 25.3654 16.6347 25.346 16.7708C25.3266 16.9069 25.2585 17.0236 25.1418 17.1208L24.1502 17.9667C24.1891 18.2 24.2085 18.4431 24.2085 18.6958C24.2085 18.9486 24.1891 19.1917 24.1502 19.425L25.1127 20.2708C25.2293 20.3681 25.3024 20.4847 25.332 20.6208C25.3616 20.7569 25.3371 20.8833 25.2585 21L24.5585 22.1667C24.4807 22.2833 24.3835 22.3662 24.2668 22.4152C24.1502 22.4642 24.0238 22.4688 23.8877 22.4292L22.6335 22.05C22.4196 22.2056 22.2108 22.337 22.007 22.4443C21.8032 22.5517 21.5843 22.6536 21.3502 22.75L21.0877 24.0333C21.0488 24.1694 20.9807 24.2815 20.8835 24.3693C20.7863 24.4572 20.6696 24.5008 20.5335 24.5H19.1335C18.9974 24.5 18.8807 24.4564 18.7835 24.3693C18.6863 24.2822 18.6182 24.1702 18.5793 24.0333L18.3168 22.75Z" fill="#2B2B2B"/>
</svg>
