<svg width="144" height="128" viewBox="0 0 144 128" fill="none" xmlns="http://www.w3.org/2000/svg">
<g clip-path="url(#clip0_132_9)">
<path opacity="0.4" d="M139.929 56.401L95.63 12.1007C93.3745 9.84524 88.92 8.00024 85.7305 8.00024H76.5L129.143 60.6442C132.267 63.7687 132.266 68.8342 129.142 71.9582L83.1348 117.962C88.5153 121.2 95.5855 120.54 100.226 115.9L139.928 76.2002C145.396 70.733 145.397 61.8682 139.929 56.401Z" fill="#FFE294"/>
<path d="M107.899 56.401L63.6005 12.1007C61.3452 9.84524 56.8905 8.00024 53.7012 8.00024H7C3.13375 8.00024 0 11.134 0 15.0002V61.7007C0 64.8902 1.84525 69.3452 4.1005 71.6007L48.398 115.899C53.8652 121.367 62.729 121.367 68.1967 115.9L107.899 76.2002C113.367 70.733 113.367 61.8682 107.899 56.401ZM28 44.0002C23.5835 44.0002 20 40.419 20 36.0002C20 31.5807 23.5835 28.0002 28 28.0002C32.4165 28.0002 36 31.5807 36 36.0002C36 40.419 32.4165 44.0002 28 44.0002Z" fill="#FFE294"/>
</g>
<defs>
<clipPath id="clip0_132_9">
<rect width="144" height="128" fill="white"/>
</clipPath>
</defs>
</svg>
